<svg width="1179" height="795" viewBox="0 0 1179 795" fill="none" xmlns="http://www.w3.org/2000/svg">
<path fill-rule="evenodd" clip-rule="evenodd" d="M594.951 4.09891C575.162 48.5239 550.654 90.6699 528.782 117.89C513.824 136.504 476.069 172.025 473.155 170.224C472.677 169.929 472.286 170.342 472.286 171.143C472.286 172.366 475.295 172.599 491.093 172.599H509.9L510.233 314.849C510.534 443.7 510.723 457.731 512.236 463.812C518.426 488.683 528.901 507.062 547.905 526.392C575.507 554.468 612.008 567.954 648.953 563.726C665.539 561.828 685.609 555.208 699.05 547.201L704.807 543.771L710.794 547.987C718.628 553.504 730.488 559.013 740.453 561.764C747.91 563.822 751.023 563.999 786.344 564.361C811.009 564.614 827.24 564.355 832.844 563.619C847.9 561.644 862.971 555.353 872.893 546.902L876.646 543.706L880.433 546.279C892.097 554.205 912.366 561.286 929.5 563.422C933.932 563.975 966.335 564.461 1002.7 564.52L1067.95 564.627V458.662C1067.95 384.593 1068.29 351.102 1069.07 347.398C1070.9 338.662 1074.54 332.195 1080.96 326.256C1091.4 316.585 1091.32 316.599 1138.49 316.599H1178.95V272.599V228.599L1121.2 228.607C1086.68 228.611 1060.84 229.027 1056.95 229.64C1028.12 234.188 1003.47 252.933 991.046 279.755C983.08 296.951 983.544 290.475 983.199 389.399L982.891 477.7L959.172 477.399C936.675 477.114 935.209 476.979 930.722 474.769C924.184 471.549 916.892 464.74 913.698 458.872C908.224 448.814 907.953 445.985 907.953 398.889V355.599H863.453H818.953V416.599V477.599H790.798H762.643L763.272 438.849C763.903 399.975 765.008 385.741 768.427 372.393C771.989 358.49 776.745 351.15 786.419 344.623C795.226 338.682 800.214 336.169 832.453 321.435C860.508 308.613 873.049 301.94 893.701 288.851L906.953 280.452V228.025C906.953 199.191 906.791 175.599 906.592 175.599C906.394 175.599 901.428 178.76 895.557 182.623C868.316 200.547 843.666 214.257 794.425 238.873C747.74 262.21 730.473 272.998 716.973 287.259C707.426 297.345 702.819 303.904 696.719 316.099C684.158 341.209 677.189 376.591 675.447 424.099C675.105 433.449 674.401 443.27 673.883 445.923C671.548 457.898 662.722 469.483 652.189 474.401C647.223 476.719 645.178 477.076 636.953 477.064C629.256 477.053 626.519 476.624 622.533 474.805C611.762 469.892 603.396 460.166 600.421 449.099C598.967 443.692 598.758 421.26 598.303 222.099C598.025 100.549 597.658 0.648912 597.488 0.0989122C597.317 -0.451088 596.176 1.34891 594.951 4.09891ZM78.72 339.349L78.453 450.099L75.616 455.879C70.171 466.973 58.209 475.952 47.126 477.265C42.53 477.809 41.859 478.187 41.394 480.49C35.265 510.853 24.023 534.971 5.87203 556.696C0.231035 563.447 -1.05097 565.337 0.776035 564.208C1.22903 563.928 7.64203 563.607 15.026 563.495C35.884 563.177 72.197 559.978 77.338 558.005C78.807 557.441 78.967 567.516 79.199 675.744L79.453 794.099L84.953 793.83C115.411 792.339 144.389 772.995 157.953 745.099C160.092 740.699 162.863 733.724 164.111 729.599C166.374 722.119 166.381 721.891 166.711 642.915L167.043 563.731L203.748 563.41L240.453 563.088L249.69 559.867C260.502 556.097 266.293 553.262 274.216 547.861L279.979 543.933L291.216 549.557C303.587 555.748 314.396 559.603 326.161 562.017C336.125 564.062 359.737 564.114 371.193 562.116C388.548 559.09 406.408 551.184 421.247 539.96C428.05 534.813 429.729 533.953 431.065 534.926C431.952 535.571 435.777 538.45 439.565 541.325C457.154 554.669 480.491 562.884 503.453 563.815L510.453 564.099L510.714 520.979L510.974 477.859L505.826 477.177C498.867 476.253 491.699 472.44 485.76 466.502C479.771 460.513 476.031 452.701 474.88 443.778C474.406 440.105 474.004 390.186 473.986 332.849L473.953 228.599H430.478H387.004L386.726 338.349C386.408 464.139 387.304 452.875 376.721 464.188C372.633 468.558 368.652 471.606 364.117 473.837C358.12 476.788 356.629 477.099 348.471 477.099C340.546 477.099 338.738 476.748 333.551 474.201C325.901 470.445 316.911 461.291 312.929 453.202C310.003 447.258 309.748 445.795 308.455 427.499C305.501 385.73 300.717 358.362 291.776 332.099C274.975 282.747 241.6 251.937 191.061 239.126C167.487 233.151 126.123 228.599 95.391 228.599H78.987L78.72 339.349ZM192.453 329.384C172.214 340.092 148.887 355.609 142.648 362.515C138.732 366.849 137.926 370.739 140.079 374.915C140.699 376.116 145.199 381.201 150.079 386.214C156.157 392.458 158.96 396.081 158.974 397.714C158.986 399.026 160.146 403.249 161.554 407.099C162.961 410.949 164.263 415.551 164.448 417.325C165.189 424.454 173.108 431.653 188.453 439.147C194.503 442.102 202.7 445.404 206.668 446.486L213.882 448.452L214.168 438.776C214.498 427.572 213.479 428.209 227.207 430.625C232.526 431.562 235.285 431.667 235.991 430.961C237.295 429.657 239.108 420.651 239.403 414.016C239.527 411.22 239.953 408.409 240.349 407.768C240.745 407.127 240.368 405.602 239.511 404.378C237.296 401.215 237.576 399.076 240.453 397.191C243.629 395.11 243.606 393.558 240.358 390.523C236.338 386.767 235.208 383.79 233.078 371.341C230.999 359.185 229.968 356.506 223.944 347.599C221.898 344.574 218.638 338.949 216.699 335.099C210.069 321.935 207.623 321.358 192.453 329.384ZM166.633 438.599C167.274 446.035 169.638 452.262 173.078 455.576C177.533 459.868 194.818 467.258 211.703 472.09C213.9 472.719 213.953 472.549 213.953 464.879V457.024L203.703 453.69C188.879 448.867 177.363 442.978 171.263 437.1L166.073 432.099L166.633 438.599Z" fill="#F2F2F2"/>
<rect x="424.947" y="85.5989" width="60.8026" height="60.8026" transform="rotate(45 424.947 85.5989)" fill="#C2842B"/>
</svg>
